<svg width="26" height="26" viewBox="0 0 27 26" fill="none"
     xmlns="http://www.w3.org/2000/svg"
     plerdy-tracking-id="15954357202">
    <path fill-rule="evenodd" clip-rule="evenodd"
          d="M0.998047 1.86855C0.998047 1.37106 1.40134 0.967773 1.89882 0.967773H4.5659C4.97324 0.967773 5.32988 1.24113 5.43573 1.63448L6.35948 5.06727L25.9625 6.37591C26.4357 6.40749 26.8033 6.80049 26.8033 7.27468V15.3839C26.8033 15.8542 26.4415 16.2454 25.9725 16.2819L8.63653 17.6335C8.20428 17.6672 7.80935 17.3882 7.69669 16.9695L4.78715 6.15722L3.87548 2.76932H1.89882C1.40134 2.76932 0.998047 2.36603 0.998047 1.86855ZM6.85423 6.90585L9.24203 15.7792L25.0018 14.5506V8.11733L6.85423 6.90585ZM13.7901 23.2305C13.7901 24.7229 12.5802 25.9328 11.0878 25.9328C9.59531 25.9328 8.38544 24.7229 8.38544 23.2305C8.38544 21.738 9.59531 20.5282 11.0878 20.5282C12.5802 20.5282 13.7901 21.738 13.7901 23.2305ZM21.7577 25.9328C23.2501 25.9328 24.46 24.7229 24.46 23.2305C24.46 21.738 23.2501 20.5282 21.7577 20.5282C20.2652 20.5282 19.0553 21.738 19.0553 23.2305C19.0553 24.7229 20.2652 25.9328 21.7577 25.9328Z"
          fill="#000000"></path>
</svg>
