<svg width="21" height="16" viewBox="0 0 21 17" fill="none" xmlns="http://www.w3.org/2000/svg"
     plerdy-tracking-id="41527735201">
    <path d="M9.6684 1.88867C8.52567 1.88867 7.40859 2.22753 6.45844 2.8624C5.50829 3.49727 4.76774 4.39964 4.33043 5.45539C3.89313 6.51114 3.77871 7.67286 4.00165 8.79364C4.22458 9.91441 4.77486 10.9439 5.5829 11.752C6.39094 12.56 7.42044 13.1103 8.54122 13.3332C9.66199 13.5561 10.8237 13.4417 11.8795 13.0044C12.9352 12.5671 13.8376 11.8266 14.4724 10.8764C15.1073 9.92626 15.4462 8.80918 15.4462 7.66645C15.4461 6.13412 14.8373 4.66457 13.7538 3.58105C12.6703 2.49753 11.2007 1.88877 9.6684 1.88867V1.88867Z"
          stroke="#FFFFFF" stroke-width="2" stroke-miterlimit="10"></path>
    <path d="M14 12L18 16" stroke="#FFFFFF" stroke-width="2" stroke-miterlimit="10" stroke-linecap="round"></path>
</svg>